<svg width="24" height="24" viewBox="0 0 24 24" fill="none" xmlns="http://www.w3.org/2000/svg">
<path d="M13.2607 20.7665L18.721 17.614C19.3039 17.2775 19.5947 17.1092 19.8067 16.8738C19.9942 16.6655 20.136 16.4202 20.2227 16.1536C20.3203 15.853 20.3203 15.5172 20.3203 14.8473V8.53311C20.3203 7.8632 20.3203 7.52737 20.2227 7.22681C20.136 6.96025 19.9942 6.71471 19.8067 6.50643C19.5957 6.27204 19.3054 6.10448 18.7276 5.77086L13.2598 2.61402C12.6769 2.27749 12.386 2.10956 12.0762 2.0437C11.802 1.98543 11.5186 1.98543 11.2444 2.0437C10.9346 2.10956 10.6428 2.27749 10.0599 2.61402L4.59859 5.76709C4.01638 6.10322 3.72551 6.27116 3.51367 6.50643C3.32613 6.71471 3.1845 6.96025 3.09789 7.22681C3 7.52808 3 7.86479 3 8.53785V14.8428C3 15.5159 3 15.8523 3.09789 16.1536C3.1845 16.4202 3.32613 16.6655 3.51367 16.8738C3.72563 17.1092 4.01672 17.2775 4.59961 17.614L10.0599 20.7665C10.6427 21.103 10.9346 21.271 11.2444 21.3369C11.5186 21.3952 11.802 21.3952 12.0762 21.3369C12.386 21.271 12.6779 21.103 13.2607 20.7665Z" stroke="#FF9B9B" stroke-width="2" stroke-linecap="round" stroke-linejoin="round"/>
<path d="M8.66016 11.6902C8.66016 13.347 10.0033 14.6902 11.6602 14.6902C13.317 14.6902 14.6602 13.347 14.6602 11.6902C14.6602 10.0333 13.317 8.69019 11.6602 8.69019C10.0033 8.69019 8.66016 10.0333 8.66016 11.6902Z" stroke="#FF9B9B" stroke-width="2" stroke-linecap="round" stroke-linejoin="round"/>
</svg>
